<svg height="464pt" viewBox="-136 0 464 464" width="464pt" xmlns="http://www.w3.org/2000/svg"><g fill="#787680"><path d="m72 400v64h-48v-16zm0 0"/><path d="m168 448v16h-48v-64zm0 0"/><path d="m64 48h64v32h-64zm0 0"/><path d="m64 192h64v32h-64zm0 0"/></g><path d="m192 264v24h-72v88h-48v-88h-72v-24l56-34.960938 8-5.039062h64l8 5.039062zm0 0" fill="#acabb1"/><path d="m128 32c0-17.671875-14.328125-32-32-32s-32 14.328125-32 32v16h64zm0 0" fill="#acabb1"/><path d="m64 80h64v112h-64zm0 0" fill="#acabb1"/><path d="m72 464h48v-64h-48zm0 0" fill="#acabb1"/><path d="m72 376h48v24h-48zm0 0" fill="#787680"/><path d="m136 416v48h-16v-64zm0 0" fill="#57565c"/><path d="m72 400v64h-16v-48zm0 0" fill="#57565c"/><path d="m88 424h16v40h-16zm0 0" fill="#57565c"/><path d="m136 229.039062v58.960938h-16v-64h8zm0 0" fill="#898890"/><path d="m72 224v64h-16v-58.960938l8-5.039062zm0 0" fill="#898890"/></svg>