<svg height="512" viewBox="0 0 512 512" width="512" xmlns="http://www.w3.org/2000/svg"><g><g fill="#57a4ff"><path d="m256 16-3.89 4.24a319.681 319.681 0 0 0 -51.63 75.76h111.04a319.681 319.681 0 0 0 -51.63-75.76z"/><circle cx="256" cy="216" r="32"/><circle cx="256" cy="328" r="24"/><path d="m102.43 392h65.57v-128l-72.35 115.76a8 8 0 0 0 6.78 12.24z"/><path d="m344 392h65.57a8 8 0 0 0 6.78-12.24l-72.35-115.76z"/><path d="m208 432-32 64h160l-32-64z"/></g><g fill="#004fac"><path d="m256 152a64 64 0 1 0 64 64 64.072 64.072 0 0 0 -64-64zm0 112a48 48 0 1 1 48-48 48.053 48.053 0 0 1 -48 48z"/><path d="m256 176a40 40 0 1 0 40 40 40.045 40.045 0 0 0 -40-40zm0 64a24 24 0 1 1 24-24 24.028 24.028 0 0 1 -24 24z"/><path d="m256 296a32 32 0 1 0 32 32 32.036 32.036 0 0 0 -32-32zm0 48a16 16 0 1 1 16-16 16.019 16.019 0 0 1 -16 16z"/><path d="m423.13 375.52-71.13-113.81v-25.24a327.225 327.225 0 0 0 -86.21-221.63l-3.89-4.25a8.015 8.015 0 0 0 -11.8 0l-3.89 4.25a327.225 327.225 0 0 0 -86.21 221.63v25.24l-71.13 113.81a16 16 0 0 0 13.56 24.48h58.25a48.131 48.131 0 0 0 35.16 38.44l-27 53.98a8 8 0 0 0 7.16 11.58h160a8 8 0 0 0 7.16-11.58l-27-53.98a48.131 48.131 0 0 0 35.16-38.44h58.25a16 16 0 0 0 13.56-24.48zm-263.13 8.48h-57.57l57.57-92.11zm96-356.14a312.534 312.534 0 0 1 42.44 60.14h-84.88a312.534 312.534 0 0 1 42.44-60.14zm67.06 460.14h-134.12l24-48h86.12zm12.94-96a32.042 32.042 0 0 1 -32 32h-96a32.042 32.042 0 0 1 -32-32v-155.53a311.4 311.4 0 0 1 29.48-132.47h101.04a311.4 311.4 0 0 1 29.48 132.47zm16-8v-92.11l57.57 92.11z"/></g></g></svg>